<?xml version="1.0" encoding="UTF-8"?>
<svg width="32" height="32" viewBox="0 0 32 32" fill="none"
    xmlns="http://www.w3.org/2000/svg">
    <!-- Body -->
    <path d="M5 12C5 7 9 4 16 4C23 4 27 7 27 12C27 15 26 17 24 18V20C24 21 23 22 22 22H10C9 22 8 21 8 20V18C6 17 5 15 5 12Z" fill="#FF4040" stroke="black" stroke-width="2"/>
    <!-- Eyes -->
    <circle cx="12" cy="11" r="2" fill="white" stroke="black" stroke-width="2"/>
    <circle cx="20" cy="11" r="2" fill="white" stroke="black" stroke-width="2"/>
    <circle cx="12" cy="11" r="0.8" fill="black"/>
    <circle cx="20" cy="11" r="0.8" fill="black"/>
    <!-- Tentacles (Middle Fingers) -->
    <path d="M8 18L6 24" stroke="black" stroke-width="2" stroke-linecap="round"/>
    <path d="M12 18L10 28" stroke="black" stroke-width="2" stroke-linecap="round"/>
    <path d="M16 18L16 28" stroke="black" stroke-width="2" stroke-linecap="round"/>
    <path d="M20 18L22 28" stroke="black" stroke-width="2" stroke-linecap="round"/>
    <path d="M24 18L26 24" stroke="black" stroke-width="2" stroke-linecap="round"/>
</svg> 